<svg xmlns="http://www.w3.org/2000/svg" width="26" height="26" viewBox="0 0 50 50">
  <defs>
    <style>
      .cls-1 {
        fill: #2d2d2d;
      }

      .cls-2 {
        fill: none;
      }

      .cls-2, .cls-3 {
        stroke: #fff;
        stroke-miterlimit: 10;
        stroke-width: 2px;
      }

      .cls-3 {
        fill: #fff;
      }
    </style>
  </defs>
  <title>addr</title>
  <g id="Layer_2" data-name="Layer 2">
    <g id="site">
      <g>
        <rect class="cls-1" width="50" height="50" rx="6" ry="6"/>
        <path class="cls-2" d="M24.63,39"/>
        <path class="cls-2" d="M25,20.54"/>
        <path class="cls-2" d="M25,20.54"/>
        <path class="cls-2" d="M24.63,39"/>
        <circle class="cls-3" cx="25" cy="18.43" r="3.39"/>
        <path class="cls-2" d="M35.19,22.79a.28.28,0,0,0,0-.1,11,11,0,1,0-20.42,0,.28.28,0,0,0,0,.09l.06.11a11,11,0,0,0,.75,1.43l9.15,17.39a.3.3,0,0,0,.53,0l9.13-17.47a11,11,0,0,0,.68-1.3Z"/>
      </g>
    </g>
  </g>
</svg>
